<?xml version="1.0" encoding="UTF-8" standalone="no"?>
<svg
   viewBox="0,0,256,256"
   width="256px"
   height="256px"
   version="1.1"
   id="svg14"
   sodipodi:docname="icon.svg"
   inkscape:export-filename="../../dev/pboutin/dofus-team/build/icons/icon16x16.png"
   inkscape:export-xdpi="6"
   inkscape:export-ydpi="6"
   inkscape:version="1.3 (0e150ed, 2023-07-21)"
   xmlns:inkscape="http://www.inkscape.org/namespaces/inkscape"
   xmlns:sodipodi="http://sodipodi.sourceforge.net/DTD/sodipodi-0.dtd"
   xmlns="http://www.w3.org/2000/svg"
   xmlns:svg="http://www.w3.org/2000/svg">
  <defs
     id="defs14">
    <inkscape:path-effect
       effect="fillet_chamfer"
       id="path-effect15"
       is_visible="true"
       lpeversion="1"
       nodesatellites_param="F,0,1,1,0,50.549153,0,1 @ F,0,1,1,0,50.549153,0,1 @ F,0,0,1,0,50.549153,0,1 @ F,0,1,1,0,50.549153,0,1"
       radius="0"
       unit="px"
       method="auto"
       mode="F"
       chamfer_steps="1"
       flexible="false"
       use_knot_distance="true"
       apply_no_radius="true"
       apply_with_radius="true"
       only_selected="false"
       hide_knots="false" />
    <inkscape:path-effect
       effect="fillet_chamfer"
       id="path-effect14"
       is_visible="true"
       lpeversion="1"
       nodesatellites_param="F,0,0,1,0,0,0,1 @ F,0,0,1,0,0,0,1 @ F,0,0,1,0,0,0,1 @ F,0,0,1,0,0,0,1"
       radius="0"
       unit="px"
       method="auto"
       mode="F"
       chamfer_steps="1"
       flexible="false"
       use_knot_distance="true"
       apply_no_radius="true"
       apply_with_radius="true"
       only_selected="false"
       hide_knots="false" />
  </defs>
  <sodipodi:namedview
     id="namedview14"
     pagecolor="#ffffff"
     bordercolor="#000000"
     borderopacity="0.25"
     inkscape:showpageshadow="2"
     inkscape:pageopacity="0.0"
     inkscape:pagecheckerboard="0"
     inkscape:deskcolor="#d1d1d1"
     inkscape:zoom="0.921875"
     inkscape:cx="-10.847458"
     inkscape:cy="182.23729"
     inkscape:window-width="1472"
     inkscape:window-height="783"
     inkscape:window-x="0"
     inkscape:window-y="38"
     inkscape:window-maximized="0"
     inkscape:current-layer="svg14" />
  <g
     fill="#282a36"
     fill-rule="nonzero"
     stroke="none"
     stroke-width="1"
     stroke-linecap="butt"
     stroke-linejoin="miter"
     stroke-miterlimit="10"
     stroke-dasharray=""
     stroke-dashoffset="0"
     font-family="none"
     font-weight="none"
     font-size="none"
     text-anchor="none"
     style="mix-blend-mode: normal"
     id="g1">
    <path
       d="M 0,205.45085 V 50.549153 A 50.549153,50.549153 135 0 1 50.549153,0 H 205.45085 A 50.549153,50.549153 45 0 1 256,50.549153 V 205.45085 A 50.549153,50.549153 135 0 1 205.45085,256 H 50.549153 A 50.549153,50.549153 45 0 1 0,205.45085 Z"
       id="bgRectangle"
       inkscape:path-effect="#path-effect15"
       inkscape:original-d="M0,256v-256h256v256z" />
  </g>
  <g
     fill="none"
     fill-rule="nonzero"
     stroke="none"
     stroke-width="1"
     stroke-linecap="butt"
     stroke-linejoin="miter"
     stroke-miterlimit="10"
     stroke-dasharray=""
     stroke-dashoffset="0"
     font-family="none"
     font-weight="none"
     font-size="none"
     text-anchor="none"
     style="mix-blend-mode: normal"
     id="g14">
    <g
       transform="scale(4,4)"
       id="g13">
      <path
         d="M19.611,15c-3.872,6.178 -8.286,15.339 -8.594,24c-0.173,4.874 0.954,9.589 4.209,13.525c0.826,0.999 2.773,3.137 6.37,4.973c6.532,3.335 14.351,3.335 20.886,0.006c3.598,-1.833 5.518,-3.967 6.341,-4.979c10.857,-13.358 -2.231,-35.375 -7.905,-42.583c-3.437,-4.366 -6.219,-5.942 -8.893,-5.942c-2.674,0 -5.457,1.576 -8.893,5.942c-0.998,1.268 -2.23,2.997 -3.521,5.058z"
         fill="#1f202b"
         id="path1" />
      <path
         d="M12.372,36.494c-0.051,0 -0.103,-0.004 -0.155,-0.012l-1.977,-0.309c-0.546,-0.085 -0.919,-0.597 -0.834,-1.143c0.086,-0.545 0.586,-0.913 1.143,-0.834l1.977,0.309c0.546,0.085 0.919,0.597 0.834,1.143c-0.078,0.494 -0.504,0.846 -0.988,0.846z"
         fill="#bc93f9"
         id="path2" />
      <path
         d="M13.329,32.118c-0.09,0 -0.181,-0.012 -0.271,-0.038l-1.926,-0.54c-0.532,-0.149 -0.843,-0.701 -0.693,-1.233c0.15,-0.532 0.708,-0.84 1.232,-0.693l1.926,0.54c0.532,0.149 0.843,0.701 0.693,1.233c-0.123,0.442 -0.524,0.731 -0.961,0.731z"
         fill="#bc93f9"
         id="path3" />
      <path
         d="M14.756,27.844c-0.119,0 -0.24,-0.021 -0.357,-0.066l-1.868,-0.715c-0.516,-0.198 -0.774,-0.776 -0.576,-1.292c0.197,-0.516 0.779,-0.772 1.291,-0.577l1.868,0.715c0.516,0.198 0.774,0.776 0.576,1.292c-0.153,0.398 -0.532,0.643 -0.934,0.643z"
         fill="#bc93f9"
         id="path4" />
      <path
         d="M16.537,23.686c-0.143,0 -0.289,-0.031 -0.427,-0.096l-1.808,-0.855c-0.499,-0.236 -0.713,-0.833 -0.477,-1.332c0.235,-0.499 0.832,-0.713 1.332,-0.476l1.808,0.855c0.499,0.236 0.713,0.833 0.477,1.332c-0.171,0.361 -0.53,0.572 -0.905,0.572z"
         fill="#bc93f9"
         id="path5" />
      <path
         d="M18.613,19.656c-0.165,0 -0.332,-0.041 -0.486,-0.126l-1.747,-0.974c-0.482,-0.269 -0.655,-0.878 -0.386,-1.36c0.268,-0.483 0.878,-0.656 1.36,-0.387l1.747,0.974c0.482,0.269 0.655,0.878 0.386,1.36c-0.182,0.328 -0.523,0.513 -0.874,0.513z"
         fill="#bc93f9"
         id="path6" />
      <path
         d="M48.82,52.52c-0.82,1.02 -2.74,3.15 -6.34,4.98c-0.891,0.453 -11.058,5.516 -20.88,0c-6.398,-3.593 -8.885,-9.56 -9.6,-11.5c0.946,1.168 5.739,6.85 13,7c8.431,0.174 15.123,-6.595 17,-13c0.756,-2.58 -0.819,-8.088 -4,-19c-3.015,-10.341 -4.346,-13.227 -7,-14c-2.62,-0.763 -5.434,0.852 -7.4,2.37c3.22,-3.93 5.87,-5.37 8.42,-5.37c2.68,0 5.46,1.58 8.9,5.94c5.67,7.21 18.76,29.23 7.9,42.58z"
         fill="#1f202b"
         id="path7" />
      <path
         d="M32.043,61.002c-3.745,0 -7.488,-0.871 -10.901,-2.613c-2.714,-1.386 -4.964,-3.145 -6.686,-5.227c-3.146,-3.802 -4.639,-8.579 -4.438,-14.198c0.019,-0.552 0.526,-1.014 1.034,-0.963c0.553,0.02 0.984,0.482 0.964,1.034c-0.182,5.115 1.157,9.439 3.98,12.852c1.548,1.871 3.584,3.46 6.055,4.721c6.252,3.191 13.721,3.191 19.977,0.006c2.472,-1.259 4.496,-2.847 6.019,-4.72c10.262,-12.623 -2.234,-34.117 -7.915,-41.333c-2.986,-3.794 -5.562,-5.561 -8.108,-5.561c-2.545,0 -5.121,1.767 -8.106,5.561c-0.772,0.98 -1.999,2.639 -3.459,4.97c-0.294,0.468 -0.911,0.61 -1.379,0.317c-0.468,-0.293 -0.609,-0.911 -0.316,-1.378c1.508,-2.407 2.78,-4.127 3.582,-5.146c3.395,-4.315 6.471,-6.324 9.678,-6.324c3.208,0 6.284,2.009 9.68,6.323c7.406,9.409 18.587,30.678 7.896,43.832c-1.7,2.091 -3.942,3.854 -6.663,5.24c-3.412,1.738 -7.154,2.607 -10.894,2.607z"
         fill="#bc93f9"
         id="path8" />
      <g
         fill="#1f202b"
         id="g9">
        <path
           d="M25.074,25.482c-2.281,3.641 -4.883,9.039 -5.064,14.143c-0.102,2.872 0.562,5.65 2.481,7.97c0.487,0.588 1.634,1.848 3.754,2.931c3.849,1.965 8.457,1.965 12.308,0.004c2.12,-1.08 3.251,-2.338 3.736,-2.934c6.398,-7.872 -1.315,-20.846 -4.658,-25.094c-2.026,-2.573 -3.665,-3.502 -5.241,-3.502c-1.576,0 -3.215,0.929 -5.241,3.501c-0.588,0.748 -1.314,1.767 -2.075,2.981z"
           id="path9" />
      </g>
      <g
         fill="#ff79c6"
         id="g11">
        <path
           d="M27.751,24c-2.75,-1.546 -3.282,-2.145 -3.515,-3c-0.773,-2.831 2.084,-7.07 6.218,-8c3.087,-0.695 6.381,0.569 8.291,3c2.818,3.586 1.121,7.799 1.036,8c-2.418,-1 -4.836,-2 -7.254,-3c-0.95,-1.033 -0.779,-2.443 0,-3c0.534,-0.382 1.359,-0.367 2.073,0c-0.167,-0.302 -1.486,-2.605 -4.145,-3c-2.631,-0.391 -4.531,1.39 -5.182,2c-2.182,2.046 -3.02,5.35 -2.073,8c0.705,1.973 2.057,3.191 5.182,5c5.182,3 5.855,2.538 8.291,5c1.178,1.191 3.177,3.211 3.109,6c-0.075,3.091 -2.658,6.411 -6.218,7c-0.473,0.078 -4.149,0.626 -6.218,-2c-1.511,-1.917 -1.544,-4.739 0,-7c-0.085,1.391 0.798,2.632 2.073,3c1.155,0.333 2.469,-0.102 3.109,-1c0.631,-0.886 0.437,-2.151 0,-3c-1.234,-2.398 -4.535,-1.722 -8.291,-4c-2.078,-1.261 -3.383,-2.872 -4.145,-4c-0.839,1.648 -1.975,4.437 -2.073,8c-0.056,2.052 -0.223,7.961 4.145,12c4.857,4.49 13.257,4.955 18.654,1c0.55,-0.403 4.781,-3.607 5.182,-9c0.449,-6.049 -4.267,-10.196 -5.182,-11c-0.268,-0.235 -0.498,-0.421 -0.743,-0.592c-0.305,-0.213 -0.742,-0.496 -1.329,-0.763l-3.746,-2.053c-0.843,-0.44 -1.832,-0.963 -3,-1.592v0z"
           id="path10" />
        <path
           d="M46,42c-0.353,5.383 -4.46,8.474 -5.18,9c-5.4,3.95 -13.8,3.49 -18.66,-1c-4.656,-4.301 -4.209,-10.772 -4.14,-12c0.178,-3.145 1.225,-5.577 1.98,-7c1.667,1.333 3.333,2.667 5,4c-0.303,0.372 -3.357,4.245 -2,9c1.193,4.181 5.142,6.748 9,7c4.76,0.311 8.395,-2.967 10,-6c2.439,-4.61 1.301,-10.763 -3,-15c4.588,2.595 7.311,7.262 7,12z"
           id="path11" />
      </g>
      <path
         d="M32.165,54.689c-3.923,0 -7.851,-1.339 -10.681,-3.955c-4.699,-4.344 -4.524,-10.676 -4.467,-12.757c0.08,-2.91 0.813,-5.745 2.181,-8.431c0.161,-0.315 0.477,-0.522 0.83,-0.544c0.357,-0.028 0.691,0.145 0.89,0.438c1.049,1.55 2.339,2.797 3.836,3.706c1.522,0.923 2.984,1.329 4.275,1.688c1.795,0.499 3.49,0.97 4.386,2.709c0.542,1.054 0.848,2.743 -0.074,4.038c-0.889,1.245 -2.654,1.826 -4.201,1.381c-0.744,-0.215 -1.386,-0.65 -1.866,-1.223c-0.23,1.308 0.055,2.625 0.856,3.643c1.661,2.107 4.681,1.729 5.27,1.633c3.247,-0.537 5.321,-3.553 5.382,-6.038c0.058,-2.363 -1.674,-4.114 -2.82,-5.272c-1.387,-1.401 -2.114,-1.755 -3.709,-2.528c-0.998,-0.484 -2.365,-1.147 -4.372,-2.31c-2.981,-1.726 -4.761,-3.118 -5.622,-5.529c-0.974,-2.722 -0.303,-6.002 1.619,-8.312c0.099,-0.196 0.207,-0.392 0.324,-0.586c1.331,-2.213 3.587,-3.863 6.033,-4.414c3.385,-0.761 7.12,0.587 9.296,3.358c3.203,4.076 1.256,8.808 1.172,9.007c-0.214,0.506 -0.798,0.742 -1.303,0.535l-7.255,-3c-0.135,-0.056 -0.256,-0.14 -0.354,-0.248c-0.666,-0.724 -0.993,-1.669 -0.897,-2.591c0.082,-0.787 0.465,-1.479 1.052,-1.899c0.144,-0.103 0.299,-0.188 0.462,-0.256c-0.533,-0.431 -1.23,-0.812 -2.1,-0.941c-2.158,-0.318 -3.75,1.177 -4.351,1.74c-0.136,0.127 -0.266,0.26 -0.39,0.397c-0.434,0.947 -0.567,1.872 -0.366,2.61c0.129,0.472 0.422,0.919 3.041,2.392c0.481,0.271 0.652,0.88 0.382,1.362c-0.271,0.48 -0.881,0.651 -1.362,0.381c-1.885,-1.06 -2.887,-1.758 -3.445,-2.49c-0.037,0.781 0.066,1.558 0.325,2.282c0.589,1.648 1.741,2.734 4.741,4.471c1.943,1.125 3.219,1.744 4.243,2.241c1.695,0.822 2.63,1.276 4.258,2.921c1.215,1.228 3.476,3.513 3.398,6.728c-0.092,3.762 -3.257,7.334 -7.056,7.962c-0.782,0.13 -4.809,0.624 -7.166,-2.367c-1.804,-2.289 -1.82,-5.577 -0.041,-8.184c0.254,-0.371 0.728,-0.526 1.15,-0.382c0.426,0.146 0.701,0.559 0.674,1.007c-0.055,0.904 0.514,1.736 1.352,1.979c0.731,0.214 1.62,-0.06 2.018,-0.62c0.356,-0.499 0.232,-1.365 -0.075,-1.962c-0.473,-0.918 -1.402,-1.213 -3.143,-1.697c-1.346,-0.373 -3.02,-0.838 -4.777,-1.904c-1.273,-0.773 -2.417,-1.752 -3.412,-2.921c-0.798,1.971 -1.23,4.014 -1.287,6.093c-0.058,2.059 -0.208,7.511 3.824,11.238c4.545,4.203 12.346,4.619 17.385,0.928c0.734,-0.539 4.419,-3.472 4.775,-8.268c0.358,-4.829 -2.881,-8.447 -4.844,-10.174c-0.237,-0.209 -0.44,-0.374 -0.657,-0.525c-0.247,-0.172 -0.64,-0.431 -1.171,-0.672c-0.502,-0.229 -0.725,-0.821 -0.496,-1.324c0.228,-0.502 0.816,-0.725 1.324,-0.497c0.68,0.309 1.175,0.635 1.488,0.854c0.274,0.192 0.532,0.399 0.831,0.662c3.873,3.407 5.832,7.606 5.519,11.825c-0.421,5.671 -4.729,9.102 -5.587,9.732c-2.64,1.931 -5.941,2.879 -9.245,2.88zM33.139,20.171l6.008,2.484c0.305,-1.335 0.536,-3.843 -1.188,-6.038c-1.711,-2.176 -4.641,-3.237 -7.284,-2.642c-0.04,0.009 -0.08,0.019 -0.121,0.028c0.017,0.002 0.032,0.004 0.049,0.007c3.052,0.454 4.595,3.001 4.873,3.507c0.212,0.385 0.147,0.864 -0.159,1.179c-0.309,0.315 -0.783,0.393 -1.175,0.192c-0.429,-0.221 -0.852,-0.203 -1.033,-0.076c-0.117,0.084 -0.204,0.267 -0.226,0.478c-0.031,0.297 0.06,0.609 0.256,0.881z"
         fill="#bc93f9"
         id="path12" />
      <path
         d="M34.999,28.592c-0.156,0 -0.314,-0.036 -0.462,-0.113c-0.846,-0.442 -1.839,-0.967 -3.011,-1.598c-0.486,-0.262 -0.669,-0.868 -0.407,-1.354c0.263,-0.486 0.87,-0.668 1.354,-0.406c1.164,0.626 2.149,1.147 2.989,1.585c0.489,0.256 0.679,0.86 0.424,1.35c-0.178,0.34 -0.527,0.536 -0.887,0.536z"
         fill="#bc93f9"
         id="path13" />
    </g>
  </g>
</svg>
